<svg id="Ebene_1" xmlns="http://www.w3.org/2000/svg" viewBox="0 0 930.1476 282.3333">
  <style>
    .st0{fill:#fff}
  </style>
  <g id="_x31__x26_1">
    <path class="st0" d="M760.5297 112.7153h113.3857V226.101H760.5297z"/>
    <path d="M816.0898 188.1429c3.2106 0 5.3616-1.176 7.2123-2.7134l-9.7832-13.012c-4.58 3.03-6.4146 5.9857-6.3306 8.7703.1324 4.2417 3.682 6.955 8.9015 6.955zm3.9792-33.9285c0-2.3064-1.6181-3.786-4.1859-3.786-2.4902 0-4.257 1.6379-4.257 3.8635 0 2.1483.6428 3.3208 3.6143 7.1391 3.5238-2.5455 4.8287-4.9133 4.8287-7.2166z" fill="#003d8f"/>
    <path d="M762.392 224.2387h109.661v-109.661H762.392v109.661zm76.504-80.6135h18.5687v51.621l-10.3099.0034V151.895h-8.2589v-8.2698zm-30.503 22.1895c-4.6575-5.9665-5.6135-8.0275-5.6135-11.765 0-6.3638 5.4391-11.0414 13.1488-11.0414 7.1446 0 12.2057 4.7582 12.2057 11.2804 0 4.7681-1.9572 8.3118-7.981 13.322l8.921 12.1041c.7428-.672 1.3855-4.784 1.2531-8.1244-.016-.3973-.1033-1.5602-.184-2.8297h8.2879c0 1.1112.1097 2.72.1097 3.114 0 6.5223-1.0206 10.6409-4.1536 14.6175l6.5954 8.7478h-10.2l-2.2997-3.1012c-3.7595 3.0139-7.0605 4.1381-12.393 4.1058-10.439-.0582-17.6255-5.3592-18.3005-14.7983-.407-5.6466 3.3655-11.4549 10.6037-15.6316zm-35.5254-22.1895h18.5718v51.621l-10.313.0034V151.895h-8.2588v-8.2698z" fill="#0e278c"/>
  </g>
  <path class="st0" d="M679.5208 196.0804c-1.704 0-3.2692-.2522-4.696-.752-1.429-.4998-2.5058-1.0019-3.2328-1.5017-.727-.502-1.6403-1.204-2.7421-2.1037v3.4555h-5.2594V143.555l5.2594-2.6285v19.6107c1.2517-1.4018 2.8057-2.5286 4.6596-3.3806 1.8515-.8519 3.7053-1.2767 5.5592-1.2767 4.8595 0 8.717 1.7788 11.5728 5.3343 2.8558 3.5577 4.2825 8.4672 4.2825 14.7284 0 6.4612-1.3518 11.4343-4.0575 14.9148-2.7059 3.4828-6.4885 5.223-11.3457 5.223zm-.827-4.7345c3.5555 0 6.2363-1.3518 8.0401-4.0576 1.8039-2.7058 2.7058-6.4861 2.7058-11.3457 0-4.9594-.902-8.7557-2.7058-11.3842-1.8038-2.6308-4.4846-3.9462-8.04-3.9462-2.1538 0-4.1212.6156-5.9 1.8424-1.7767 1.2268-3.0921 2.5672-3.944 4.019v18.861c1.0518 1.8038 2.4808 3.2578 4.2824 4.3596 1.8039 1.1019 3.6577 1.6517 5.5615 1.6517zm29.8295 18.4111l5.7114-15.7803-14.0514-37.1949h5.3343l9.694 27.276c.15.502.375 1.2017.677 2.1037.3.9019.4999 1.5017.5999 1.8038l1.354-3.9076 9.844-27.2759h5.6342L713.71 209.757h-5.1867z" id="by"/>
  <path class="st0" d="M590.881 226.156c-2.852 0-5.7072-.2873-8.4945-.859-12.1442-2.4837-22.725-10.0416-29.0297-20.7323l-.1583-.2906c-3.1426-6.282-1.0755-13.672 4.8028-17.1988a12.5754 12.5754 0 0 1 6.4596-1.786c4.596 0 8.8595 2.503 11.1268 6.534.1292.2292.2778.4778.4328.717l1.3533 1.841 1.8183 1.8376c2.2641 1.9897 5.1678 3.4074 8.2942 4.0115 4.9934.956 10.3419-.252 14.2985-3.2685 4.2537-3.0942 6.7891-7.6773 7.18-12.9355.4004-5.1806-1.46-10.3646-4.9708-13.8819 0 0-38.4159-39.8995-40.1393-41.7505-.9503-1.0208-2.7227-2.7946-4.6325-5.5018-5.4199-7.6828-7.1153-16.7401-6.2788-25.7061.4198-6.1626 2.29-12.3218 5.41-17.7672 0 0 1.7598-2.9763 2.278-3.7323 2.0345-2.968 6.0396-6.806 8.7845-8.952 2.633-2.0586 6.1548-3.8388 7.3723-4.4282 7.5639-3.6623 17.203-5.3606 26.7504-3.3647 11.8373 2.5387 22.0564 9.9284 28.0478 20.277 1.7312 2.8842 2.206 6.3206 1.3274 9.6539-.8882 3.3363-3.0425 6.1237-6.0688 7.842-1.8507 1.1013-4.0146 1.6923-6.2271 1.6923-4.5702 0-8.911-2.5515-11.0525-6.5016-2.4514-4.1244-6.4402-6.9539-11.1815-7.9035-4.6446-.9365-9.7671.2003-13.5589 3.0491-3.6885 2.768-6.0269 7.125-6.4145 11.96-.3714 4.8383 1.2532 9.444 4.5767 12.9678l39.2746 40.4988c8.572 8.8497 13.0098 21.0422 12.1798 33.461-1.1176 12.593-7.377 24.004-17.1795 31.3517-7.6159 5.7169-16.9856 8.8659-26.3811 8.8659m-124.2976-.0166c-23.2935 0-42.243-18.9525-42.243-42.246v-83.5523c0-23.2903 18.9495-42.2397 42.243-42.2397 23.2903 0 42.2395 18.9494 42.2395 42.2397v83.5524c0 23.2934-18.9492 42.246-42.2395 42.246m0-142.5322c-9.2308 0-16.7402 7.5062-16.7402 16.7338v83.5524c0 9.3858 7.351 16.737 16.7402 16.737 9.2276 0 16.7369-7.5094 16.7369-16.737v-83.5524c0-9.0727-7.6644-16.7338-16.7369-16.7338m-164.2078 60.6688v69.102c0 7.1476-5.6006 12.7481-12.7514 12.7481s-12.7513-5.6005-12.7513-12.7482V91.3521l25.5027 52.924zm69.1813 48.654V70.846c0-7.1508-5.6005-12.7514-12.7514-12.7514-7.154 0-12.7545 5.6006-12.7545 12.7514v69.1538l25.506 52.9302zm-70.226-127.6008s-.086-.1822-.1164-.242c-2.1662-4.2535-6.7956-6.915-11.5434-6.915-.8753 0-1.7764.0902-2.5678.2647-5.9266 1.1853-10.0705 6.2885-10.0705 12.4089v2.91l70.1291 145.381c2.29 4.2504 6.7374 6.9958 11.3238 6.9958 1.0303 0 2.0445-.1356 2.9166-.3714 5.8524-1.2372 9.9413-6.3273 9.9413-12.3833v-2.7486s-68.1428-141.4112-70.0128-145.3m-119.8985 160.81c-11.2689 0-21.8724-4.4021-29.8565-12.3896-7.9874-7.9906-12.3864-18.5908-12.3864-29.8563v-83.5524c0-11.2656 4.399-21.8691 12.3864-29.8532 7.9873-7.9906 18.5909-12.3865 29.8565-12.3865s21.8659 4.396 29.8533 12.3865c7.9873 7.984 12.3863 18.5876 12.3863 29.8532v83.5524c0 11.2655-4.399 21.8657-12.3863 29.8563-7.9842 7.9875-18.5877 12.3896-29.8533 12.3896m0-142.5321c-4.4636 0-8.6657 1.7409-11.8276 4.9062-3.1653 3.162-4.9094 7.364-4.9094 11.8276v83.5524c0 4.5474 1.7216 8.7753 4.8415 11.8954 3.12 3.1231 7.3479 4.8415 11.8955 4.8415 4.4636 0 8.6624-1.7442 11.8276-4.9062 3.1685-3.1652 4.9093-7.3672 4.9093-11.8307v-83.5524c0-4.3764-1.7667-8.5558-4.9739-11.7631-3.2072-3.2038-7.3866-4.9707-11.763-4.9707M71.957 226.0692c-7.7742 0-13.8624-6.1658-13.8624-14.0335V72.0518l.0259-.2746c.1001-7.6093 6.2238-13.6814 13.9367-13.6814 6.3336 0 11.7016 4.1116 13.352 10.2257.0776.2324.168.5877.239.985l.0937.6007c.1163.7558.1777 1.502.1777 2.219 0 0 .0226 138.3042-.0065 139.8901 0 7.8871-6.1302 14.0529-13.956 14.0529" id="IONOS"/>
</svg>
